<svg xmlns="http://www.w3.org/2000/svg" width="2765" height="814" viewBox="0 0 2765 814" version="1.1"><path d="M 2284.500 155.649 C 2277.007 157.209, 2272.525 158.778, 2265.500 162.300 C 2257.665 166.228, 2255.368 168.442, 2154.347 269.405 L 2051.193 372.500 2046.661 382 C 2041.108 393.640, 2039.528 401.290, 2040.281 412.905 C 2040.910 422.618, 2044.601 433.774, 2050.087 442.543 C 2051.869 445.392, 2085.365 479.718, 2128.844 523.252 C 2209.209 603.718, 2207.379 602.084, 2211.581 597.177 C 2213.723 594.675, 2249 488.553, 2249 484.611 C 2249 482.870, 2248.223 480.332, 2247.272 478.973 C 2246.322 477.613, 2229.464 460.424, 2209.811 440.775 C 2190.157 421.126, 2173.306 403.576, 2172.363 401.775 C 2169.773 396.828, 2170.122 390.160, 2173.246 384.916 C 2174.716 382.450, 2216.079 340.327, 2266.939 289.503 C 2337.278 219.212, 2358 197.957, 2358 196.098 C 2358 192.240, 2332.296 167.552, 2323.266 162.736 C 2311.693 156.563, 2294.873 153.488, 2284.500 155.649 M 2376.751 220.250 C 2374.701 221.821, 2338.994 328.726, 2339.015 333.230 C 2339.024 335.029, 2339.437 337.142, 2339.933 337.926 C 2340.429 338.710, 2357.284 355.836, 2377.388 375.982 C 2401.575 400.221, 2414.458 413.851, 2415.470 416.274 C 2417.022 419.989, 2417.334 426.629, 2416.150 430.783 C 2415.793 432.039, 2373.762 474.828, 2322.750 525.871 C 2242.683 605.985, 2230 619.070, 2230 621.557 C 2230 626.002, 2254.835 650.152, 2264.700 655.299 C 2283.876 665.305, 2303.980 665.318, 2323.300 655.336 C 2329.993 651.879, 2337.765 644.356, 2433.616 548.558 L 2536.731 445.500 2540.884 437 C 2550.350 417.621, 2550.160 398.628, 2540.309 379.700 C 2536.867 373.085, 2530.338 366.268, 2459.907 295.750 C 2380.477 216.223, 2381.177 216.859, 2376.751 220.250" stroke="none" fill="#fafafb" fill-rule="evenodd"/><path d="M 2012 8.049 C 2005.164 9.237, 1997.732 11.015, 1995.500 11.995 C 1994.400 12.479, 1992.375 13.182, 1991 13.557 C 1985.626 15.026, 1971.023 22.581, 1961.500 28.819 C 1942.243 41.433, 1922.532 63.846, 1911.399 85.788 C 1910.084 88.380, 1909.006 91.063, 1909.004 91.750 C 1909.002 92.438, 1908.586 93, 1908.079 93 C 1907.573 93, 1906.846 94.463, 1906.464 96.250 C 1906.082 98.038, 1905.453 99.950, 1905.067 100.500 C 1904.681 101.050, 1903.552 104.200, 1902.558 107.500 C 1901.564 110.800, 1900.378 114.248, 1899.922 115.163 C 1899.465 116.077, 1898.786 119.227, 1898.413 122.163 C 1898.039 125.098, 1897.231 128.132, 1896.617 128.904 C 1895.019 130.911, 1895.019 682.089, 1896.617 684.096 C 1897.231 684.868, 1898.039 687.902, 1898.413 690.837 C 1898.786 693.773, 1899.463 696.923, 1899.917 697.837 C 1900.371 698.752, 1902.247 704.112, 1904.086 709.750 C 1905.924 715.387, 1907.782 720, 1908.214 720 C 1908.646 720, 1909 720.701, 1909 721.558 C 1909 723.306, 1911.879 728.711, 1919.090 740.500 C 1924.228 748.901, 1925.635 750.763, 1934.210 760.515 C 1940.543 767.716, 1957.511 782.996, 1959.179 782.999 C 1959.552 782.999, 1960.471 783.563, 1961.221 784.250 C 1963.023 785.902, 1965.546 787.440, 1971 790.211 C 1973.475 791.469, 1975.725 792.766, 1976 793.092 C 1976.411 793.581, 1984.187 796.749, 1995.500 801.038 C 1996.600 801.455, 2000.650 802.630, 2004.500 803.648 C 2011.234 805.430, 2022.223 805.500, 2294 805.500 C 2567.577 805.500, 2576.753 805.440, 2584.500 803.609 C 2588.900 802.569, 2592.950 801.384, 2593.500 800.975 C 2594.050 800.566, 2595.944 799.922, 2597.709 799.545 C 2599.474 799.168, 2603.184 797.766, 2605.954 796.430 C 2608.724 795.093, 2611.405 794, 2611.912 794 C 2612.419 794, 2612.983 793.662, 2613.167 793.250 C 2613.350 792.837, 2615.525 791.471, 2618 790.212 C 2623.241 787.548, 2626.296 785.744, 2627 784.900 C 2627.275 784.570, 2628.531 783.757, 2629.790 783.093 C 2635.241 780.222, 2655.518 761.095, 2659.868 754.721 C 2660.702 753.499, 2661.647 752.275, 2661.968 752 C 2663.119 751.014, 2668.681 743.470, 2669.341 742 C 2669.711 741.175, 2671.141 738.700, 2672.519 736.500 C 2676.719 729.794, 2683.634 714.899, 2685.981 707.500 C 2687.203 703.650, 2688.563 699.600, 2689.003 698.500 C 2689.443 697.400, 2690.635 692.900, 2691.651 688.500 C 2693.426 680.822, 2693.500 669.464, 2693.500 406.500 C 2693.500 140.595, 2693.444 132.264, 2691.596 124.500 C 2690.549 120.100, 2689.312 116.072, 2688.846 115.550 C 2688.381 115.027, 2688 113.792, 2688 112.804 C 2688 104.924, 2672.042 72.946, 2662.148 61 C 2653.145 50.130, 2648.577 45.551, 2634.685 33.470 C 2632.411 31.493, 2621.415 24.484, 2617.473 22.500 C 2615.288 21.400, 2613.350 20.163, 2613.167 19.750 C 2612.983 19.338, 2612.392 19, 2611.853 19 C 2611.313 19, 2608.538 17.937, 2605.686 16.638 C 2602.834 15.339, 2599.375 13.960, 2598 13.575 C 2596.625 13.190, 2594.600 12.479, 2593.500 11.995 C 2591.206 10.987, 2583.779 9.242, 2576.500 7.999 C 2570.241 6.931, 2018.152 6.980, 2012 8.049 M 1703.635 126.073 L 1701 128.145 1701 349.962 C 1701 566.803, 1701.043 571.831, 1702.910 574.139 C 1704.779 576.450, 1705.230 576.507, 1724.160 576.832 C 1745.587 577.200, 1749.993 576.505, 1751.835 572.462 C 1752.710 570.542, 1753 515.065, 1753 349.407 L 1753 128.909 1750.545 126.455 C 1748.096 124.005, 1748.048 124, 1727.180 124 C 1707.540 124, 1706.110 124.126, 1703.635 126.073 M 2284.500 155.649 C 2277.007 157.209, 2272.525 158.778, 2265.500 162.300 C 2257.665 166.228, 2255.368 168.442, 2154.347 269.405 L 2051.193 372.500 2046.661 382 C 2041.108 393.640, 2039.528 401.290, 2040.281 412.905 C 2040.910 422.618, 2044.601 433.774, 2050.087 442.543 C 2051.869 445.392, 2085.365 479.718, 2128.844 523.252 C 2209.209 603.718, 2207.379 602.084, 2211.581 597.177 C 2213.723 594.675, 2249 488.553, 2249 484.611 C 2249 482.870, 2248.223 480.332, 2247.272 478.973 C 2246.322 477.613, 2229.464 460.424, 2209.811 440.775 C 2190.157 421.126, 2173.306 403.576, 2172.363 401.775 C 2169.773 396.828, 2170.122 390.160, 2173.246 384.916 C 2174.716 382.450, 2216.079 340.327, 2266.939 289.503 C 2337.278 219.212, 2358 197.957, 2358 196.098 C 2358 192.240, 2332.296 167.552, 2323.266 162.736 C 2311.693 156.563, 2294.873 153.488, 2284.500 155.649 M 2376.751 220.250 C 2374.701 221.821, 2338.994 328.726, 2339.015 333.230 C 2339.024 335.029, 2339.437 337.142, 2339.933 337.926 C 2340.429 338.710, 2357.284 355.836, 2377.388 375.982 C 2401.575 400.221, 2414.458 413.851, 2415.470 416.274 C 2417.022 419.989, 2417.334 426.629, 2416.150 430.783 C 2415.793 432.039, 2373.762 474.828, 2322.750 525.871 C 2242.683 605.985, 2230 619.070, 2230 621.557 C 2230 626.002, 2254.835 650.152, 2264.700 655.299 C 2283.876 665.305, 2303.980 665.318, 2323.300 655.336 C 2329.993 651.879, 2337.765 644.356, 2433.616 548.558 L 2536.731 445.500 2540.884 437 C 2550.350 417.621, 2550.160 398.628, 2540.309 379.700 C 2536.867 373.085, 2530.338 366.268, 2459.907 295.750 C 2380.477 216.223, 2381.177 216.859, 2376.751 220.250 M 563.751 262.035 C 555.164 263.480, 550.174 266.029, 545.133 271.544 C 538.611 278.681, 536.632 285.092, 537.176 297.323 C 537.524 305.128, 538.023 307.302, 540.513 311.864 C 545.565 321.117, 554.319 326.415, 566.717 327.723 C 572.843 328.369, 582.928 326.587, 588.110 323.944 C 609.030 313.272, 609.205 277.123, 588.392 265.807 C 584.216 263.537, 572.952 260.745, 569.500 261.125 C 568.950 261.186, 566.363 261.595, 563.751 262.035 M 1472.404 263.772 C 1464.636 266.541, 1459.552 271.134, 1455.785 278.785 C 1452.769 284.912, 1452.500 286.237, 1452.501 294.979 C 1452.501 302.794, 1452.913 305.396, 1454.800 309.500 C 1457.481 315.331, 1463.030 321.414, 1468 323.969 C 1480.378 330.333, 1499.304 328.408, 1509.546 319.743 C 1516.616 313.761, 1520.266 301.829, 1518.844 289.351 C 1517.614 278.557, 1511.894 270.110, 1502.500 265.217 C 1495.772 261.712, 1480.271 260.968, 1472.404 263.772 M 209 302.428 C 199.464 305.074, 193.736 309.703, 189.266 318.372 C 185.483 325.711, 184.854 339.954, 187.950 348.174 C 193.220 362.166, 208.423 369.691, 225.854 366.934 C 241.937 364.389, 251.628 353.931, 252.777 337.877 C 253.266 331.038, 251.828 322.666, 249.309 317.690 C 247.105 313.337, 241.012 307.045, 237.068 305.051 C 229.376 301.161, 217.548 300.056, 209 302.428 M 278.500 302.406 C 271.825 304.055, 268.237 306.072, 263.799 310.668 C 257.495 317.197, 255.500 322.925, 255.500 334.500 C 255.500 342.821, 255.886 345.339, 257.801 349.500 C 262.269 359.208, 270.465 365.077, 282.163 366.946 C 294.115 368.855, 306.498 365.468, 313.459 358.386 C 319.865 351.868, 321.494 347.129, 321.497 335 C 321.500 325.776, 321.185 323.832, 318.907 319 C 312.105 304.575, 296.183 298.036, 278.500 302.406 M 1442.223 321.999 C 1432.951 323.963, 1425.049 330.075, 1420.641 338.692 C 1418.167 343.529, 1416.972 354.138, 1418.107 361.186 C 1420.497 376.023, 1430.032 385.031, 1445.225 386.804 C 1466.094 389.239, 1480.431 380.294, 1484.009 362.605 C 1486.425 350.666, 1482.248 335.771, 1474.692 329.380 C 1466.986 322.862, 1453.076 319.700, 1442.223 321.999 M 1510.500 322.406 C 1500.938 324.769, 1494.744 329.674, 1490.237 338.453 C 1486.781 345.184, 1485.979 357.948, 1488.468 366.598 C 1490.774 374.610, 1498.880 382.752, 1507.131 385.343 C 1512.886 387.150, 1525.218 387.712, 1530.605 386.412 C 1540.331 384.066, 1548.392 376.887, 1551.975 367.381 C 1553.806 362.523, 1554.120 360.022, 1553.779 353 C 1552.936 335.676, 1544.208 324.988, 1528.535 322.091 C 1521.231 320.741, 1516.934 320.816, 1510.500 322.406 M 800.296 331.581 C 789.465 333.399, 770.082 339.674, 767.250 342.279 C 765.048 344.304, 765 344.818, 765 366.240 C 765 379.758, 765.406 388.890, 766.061 390.114 C 768.099 393.922, 771.560 394.268, 780.894 391.597 C 797.605 386.815, 803.639 385.758, 817.090 385.259 C 831.172 384.736, 840.130 385.878, 852.195 389.734 C 860.736 392.465, 890.739 407.845, 914.711 421.781 L 936.922 434.694 929.711 435.977 C 886.547 443.656, 842.386 462.548, 808.195 487.963 C 796.912 496.350, 774.104 519.225, 766.516 529.765 C 753.855 547.349, 745.323 565.670, 740.850 584.872 C 737.978 597.200, 737.204 624.122, 739.336 637.555 C 743.969 666.753, 755.435 689.428, 775.990 710.039 C 810.945 745.090, 866.900 762.626, 931.813 758.874 C 971.772 756.564, 1012.765 747.979, 1045.500 735.066 C 1057.276 730.420, 1057 731.015, 1057 710.267 C 1057 696.381, 1057.259 692.966, 1058.250 693.773 C 1061.182 696.160, 1086.043 699.920, 1104.071 700.703 C 1139.174 702.227, 1166.118 692.881, 1189.241 671.162 C 1205.662 655.739, 1218.444 632.840, 1224.918 607.248 C 1231.444 581.454, 1231.820 545.675, 1226.122 492.832 L 1224.432 477.164 1226.979 476.654 C 1228.380 476.374, 1246.576 473.158, 1267.414 469.508 C 1308.361 462.336, 1306.954 462.371, 1306.985 468.542 C 1307.010 473.661, 1309.991 494.931, 1312.160 505.470 C 1318.513 536.344, 1332.454 559.018, 1352.387 570.899 C 1360.268 575.597, 1375.746 580.670, 1386.500 582.080 C 1398.209 583.615, 1425.329 582.708, 1433.500 580.508 C 1449.380 576.232, 1460.571 570.302, 1470.525 560.888 L 1475.818 555.882 1483.127 561.530 C 1492.682 568.913, 1508.069 576.352, 1520.523 579.611 C 1533.822 583.090, 1557.830 584.033, 1571.695 581.619 C 1605.202 575.788, 1629.141 555.368, 1638.660 524.500 C 1641.360 515.744, 1641.435 514.864, 1641.432 492 C 1641.428 462.754, 1638.419 432.127, 1631.491 390.806 C 1628.259 371.527, 1628.452 372.087, 1624.436 370.409 C 1620.187 368.633, 1585.430 368.391, 1581.657 370.110 C 1576.301 372.551, 1576.287 373.908, 1581.363 399.725 C 1589.075 438.948, 1593.844 478.498, 1592.572 492.691 C 1590.345 517.534, 1578.156 528, 1551.450 528 C 1534.865 528, 1519.966 523.034, 1506.243 512.931 L 1500.411 508.637 1503.193 496.569 C 1506.816 480.850, 1514 440.967, 1514 436.570 C 1514 434.061, 1513.295 432.591, 1511.365 431.073 C 1508.897 429.131, 1507.452 429, 1488.539 429 C 1468.420 429, 1468.340 429.009, 1466.053 431.443 C 1464.110 433.512, 1463.005 438.063, 1458.848 461.138 C 1452.207 498, 1447.941 510.303, 1439.003 518.379 C 1431.318 525.322, 1422.234 527.962, 1405.960 527.985 C 1378.469 528.024, 1365.563 517.575, 1359.961 490.742 C 1358.900 485.659, 1356.491 464.721, 1354.608 444.214 C 1352.348 419.599, 1350.743 406.395, 1349.884 405.360 C 1349.168 404.497, 1347.595 403.416, 1346.389 402.958 C 1343.494 401.857, 1174.705 430.308, 1171.441 432.447 C 1170.182 433.272, 1168.873 434.824, 1168.533 435.897 C 1168.192 436.969, 1169.938 452.169, 1172.411 469.674 C 1178.932 515.817, 1179.998 526.116, 1180.667 549.500 C 1182.252 604.844, 1171.396 630.882, 1142.393 641.301 C 1125.203 647.476, 1100.893 647.357, 1071.547 640.954 C 1060.386 638.518, 1060.682 638.509, 1057.323 641.398 L 1054.535 643.797 1054.844 660.658 L 1055.153 677.519 1050.326 677.575 C 1046.817 677.616, 1041.792 679.175, 1031.915 683.286 C 1009.810 692.487, 975.357 700.411, 946.500 702.931 C 931.126 704.274, 899.913 704.298, 888.974 702.976 C 846.254 697.812, 814.402 681.066, 798.368 655.340 C 781.424 628.155, 783.659 591.119, 804.119 560.063 C 822.992 531.416, 856.779 507.428, 898.541 493.028 C 933.048 481.129, 955.499 478.114, 1015.500 477.322 C 1056.094 476.785, 1057.575 476.698, 1059.750 474.709 C 1061.960 472.688, 1062 472.236, 1062 449.398 L 1062 426.145 1059.365 424.073 C 1057.373 422.506, 1055.285 422, 1050.807 422 C 1038.162 422, 1023.438 418.710, 1008.500 412.547 C 994.266 406.674, 965.805 391.058, 938 373.864 C 904.628 353.228, 878.268 340.231, 859.008 334.917 C 841.102 329.976, 817.755 328.650, 800.296 331.581 M 554.500 370.155 C 549.078 373.120, 548.948 375.169, 553.044 393.143 C 561 428.061, 565.973 461.990, 566.177 482.752 C 566.289 494.057, 566.049 496.034, 564.055 500.221 C 561.545 505.493, 556.060 510.908, 550.208 513.894 C 535.715 521.288, 498.652 523.674, 476.847 518.617 C 459.111 514.504, 448.139 504.805, 443.632 489.256 L 442.111 484.012 454.048 470.487 C 475.725 445.924, 476.432 444.633, 471.250 439.091 C 469.738 437.473, 463.397 431.841, 457.159 426.575 C 441.746 413.562, 442.417 413.514, 428.336 428.642 C 376.053 484.811, 322.002 515.053, 256 525.067 C 238.299 527.752, 200.399 528.786, 183.500 527.044 C 134.118 521.953, 106.245 505.016, 95.383 473.500 C 92.789 465.975, 92.624 464.462, 92.597 448 C 92.568 430.076, 93.466 423.001, 98.094 404.705 C 99.763 398.108, 99.869 396.498, 98.783 394.234 C 96.548 389.573, 94.013 389.031, 74.385 389.015 C 51.484 388.996, 52.217 388.576, 48.640 403.755 C 44.915 419.557, 44.104 425.002, 43.169 440.500 C 38.315 520.893, 74.785 565.784, 156 579.386 C 179.378 583.301, 222.080 584.258, 248.700 581.462 C 301.496 575.918, 348.607 558.122, 392.392 527.184 L 402.285 520.194 406.009 527.847 C 418.637 553.791, 440.402 568.409, 475.500 574.516 C 488.431 576.766, 516.410 576.836, 530.500 574.653 C 575.460 567.690, 604.261 544.612, 612.434 509 C 617.005 489.086, 614.602 450.461, 605.468 397 C 601.518 373.885, 600.866 371.715, 597.385 370.130 C 594.080 368.624, 557.260 368.645, 554.500 370.155 M 1732.763 585.033 C 1719.358 587.290, 1707.995 593.087, 1698.523 602.500 C 1686.552 614.397, 1681.254 627.823, 1682.344 643.500 C 1682.650 647.900, 1683.747 654.039, 1684.780 657.142 L 1686.660 662.784 1680.800 663.208 C 1677.390 663.455, 1674.303 664.269, 1673.417 665.154 C 1672.513 666.058, 1670.662 673.281, 1668.862 682.925 C 1665.332 701.836, 1665.644 704.235, 1671.870 706.049 C 1674.282 706.752, 1693.523 707.005, 1729.223 706.803 L 1782.946 706.500 1785.223 704.225 C 1787.351 702.099, 1787.522 700.987, 1787.831 687.225 C 1788.204 670.589, 1787.320 665.922, 1783.462 664.165 C 1781.773 663.395, 1773.701 663, 1759.675 663 C 1741.592 663, 1738.078 662.755, 1735.973 661.347 C 1723.249 652.838, 1718.105 639.741, 1724.842 633.004 C 1726.405 631.441, 1729.668 629.621, 1732.092 628.959 C 1737.886 627.378, 1753.724 628.346, 1765.500 631 C 1775.607 633.278, 1778.896 632.719, 1780.870 628.385 C 1782.637 624.508, 1782.380 594.988, 1780.557 592.385 C 1778.955 590.098, 1768.467 586.681, 1758 585.036 C 1750.568 583.869, 1739.686 583.867, 1732.763 585.033" stroke="none" fill="#045494" fill-rule="evenodd"/></svg>