<svg id="svg" version="1.1" xmlns="http://www.w3.org/2000/svg" xmlns:xlink="http://www.w3.org/1999/xlink" width="400" height="400" viewBox="0, 0, 400,400"><g id="svgg"><path id="path0" d="M138.600 46.986 C 127.219 48.787,119.078 57.452,117.355 69.600 C 116.671 74.416,116.529 321.056,117.206 326.271 C 118.898 339.295,126.753 347.868,138.800 349.840 C 143.832 350.664,254.568 350.664,259.600 349.840 C 271.647 347.868,279.502 339.295,281.194 326.271 C 281.871 321.056,281.729 74.416,281.045 69.600 C 279.294 57.257,271.151 48.736,259.400 46.952 C 254.336 46.183,143.476 46.214,138.600 46.986 M272.800 199.200 L 272.800 311.200 199.600 311.200 L 126.400 311.200 126.400 199.200 L 126.400 87.200 199.600 87.200 L 272.800 87.200 272.800 199.200 " stroke="none" fill="#fbfbfb" fill-rule="evenodd"></path><path id="path1" d="M0.000 200.000 L 0.000 400.000 200.000 400.000 L 400.000 400.000 400.000 200.000 L 400.000 0.000 200.000 0.000 L 0.000 0.000 0.000 200.000 M262.154 46.444 C 270.044 48.572,277.327 54.935,279.959 62.000 C 280.246 62.770,280.629 63.760,280.810 64.200 C 280.991 64.640,281.281 65.540,281.453 66.200 C 281.863 67.769,281.863 329.031,281.453 330.600 C 281.281 331.260,280.991 332.160,280.810 332.600 C 280.629 333.040,280.246 334.030,279.959 334.800 C 277.327 341.865,270.044 348.228,262.154 350.356 C 259.821 350.985,138.579 350.985,136.246 350.356 C 134.664 349.929,133.765 349.600,131.600 348.657 C 126.372 346.380,120.419 340.111,118.441 334.800 C 118.154 334.030,117.771 333.040,117.590 332.600 C 117.409 332.160,117.119 331.260,116.947 330.600 C 116.537 329.031,116.537 67.769,116.947 66.200 C 117.119 65.540,117.409 64.640,117.590 64.200 C 117.771 63.760,118.154 62.770,118.441 62.000 C 121.029 55.052,127.929 48.924,135.800 46.581 C 138.020 45.920,259.723 45.788,262.154 46.444 M126.800 199.200 L 126.800 310.800 199.600 310.800 L 272.400 310.800 272.400 199.200 L 272.400 87.600 199.600 87.600 L 126.800 87.600 126.800 199.200 " stroke="none" fill="#045494" fill-rule="evenodd"></path><path id="path2" d="M124.378 53.500 L 123.000 55.000 124.500 53.622 C 125.325 52.863,126.000 52.188,126.000 52.122 C 126.000 51.816,125.662 52.104,124.378 53.500 M273.600 53.400 C 274.346 54.170,275.047 54.800,275.157 54.800 C 275.267 54.800,274.746 54.170,274.000 53.400 C 273.254 52.630,272.553 52.000,272.443 52.000 C 272.333 52.000,272.854 52.630,273.600 53.400 M124.400 343.400 C 125.146 344.170,125.847 344.800,125.957 344.800 C 126.067 344.800,125.546 344.170,124.800 343.400 C 124.054 342.630,123.353 342.000,123.243 342.000 C 123.133 342.000,123.654 342.630,124.400 343.400 M273.578 343.500 L 272.200 345.000 273.700 343.622 C 275.096 342.338,275.384 342.000,275.078 342.000 C 275.012 342.000,274.337 342.675,273.578 343.500 " stroke="none" fill="#548cb4" fill-rule="evenodd"></path><path id="path3" d="M168.100 46.300 C 185.205 46.358,213.195 46.358,230.300 46.300 C 247.405 46.242,233.410 46.195,199.200 46.195 C 164.990 46.195,150.995 46.242,168.100 46.300 M121.821 56.048 C 121.243 56.734,120.505 57.859,120.180 58.548 C 119.855 59.237,119.816 59.459,120.094 59.042 C 120.372 58.625,121.184 57.500,121.897 56.542 C 123.401 54.524,123.355 54.225,121.821 56.048 M276.444 56.442 C 277.190 57.455,278.032 58.625,278.315 59.042 C 278.598 59.459,278.430 59.036,277.942 58.101 C 277.453 57.167,276.612 55.997,276.071 55.501 C 275.345 54.836,275.443 55.082,276.444 56.442 M118.596 61.472 C 118.258 62.281,118.033 63.100,118.097 63.291 C 118.161 63.482,118.516 62.820,118.887 61.819 C 119.693 59.645,119.470 59.379,118.596 61.472 M279.513 61.819 C 279.884 62.820,280.239 63.482,280.303 63.291 C 280.431 62.906,279.293 60.000,279.014 60.000 C 278.917 60.000,279.142 60.819,279.513 61.819 M280.752 65.287 C 280.937 66.398,280.993 66.455,281.119 65.654 C 281.201 65.133,281.103 64.543,280.901 64.341 C 280.679 64.119,280.621 64.493,280.752 65.287 M116.643 67.433 C 116.292 68.347,116.355 328.910,116.706 329.462 C 116.868 329.716,117.000 270.721,117.000 198.362 C 117.000 126.003,116.974 66.800,116.943 66.800 C 116.911 66.800,116.776 67.085,116.643 67.433 M281.400 198.400 C 281.400 270.738,281.532 329.716,281.694 329.462 C 281.856 329.208,281.988 270.230,281.988 198.400 C 281.988 126.570,281.856 67.592,281.694 67.338 C 281.532 67.084,281.400 126.062,281.400 198.400 M126.585 87.699 C 126.481 87.975,126.441 138.330,126.498 199.600 L 126.600 311.000 199.600 311.000 L 272.600 311.000 272.600 199.200 L 272.600 87.400 199.688 87.299 C 141.568 87.218,126.737 87.300,126.585 87.699 M272.400 199.200 L 272.400 310.800 199.600 310.800 L 126.800 310.800 126.800 199.200 L 126.800 87.600 199.600 87.600 L 272.400 87.600 272.400 199.200 M118.000 333.484 C 118.000 334.051,119.163 336.800,119.402 336.800 C 119.507 336.800,119.296 336.035,118.932 335.100 C 118.195 333.207,118.000 332.869,118.000 333.484 M279.513 334.981 C 279.142 335.981,278.917 336.800,279.014 336.800 C 279.293 336.800,280.431 333.894,280.303 333.509 C 280.239 333.318,279.884 333.980,279.513 334.981 M120.458 338.699 C 120.947 339.633,121.788 340.803,122.329 341.299 C 123.055 341.964,122.957 341.718,121.956 340.358 C 121.210 339.345,120.368 338.175,120.085 337.758 C 119.802 337.341,119.970 337.764,120.458 338.699 M277.825 338.352 C 277.497 338.986,276.736 340.111,276.134 340.852 C 275.094 342.132,275.089 342.155,276.046 341.299 C 277.030 340.419,279.064 337.200,278.636 337.200 C 278.517 337.200,278.152 337.718,277.825 338.352 M129.600 347.564 C 130.150 348.014,130.780 348.383,131.000 348.385 C 131.428 348.388,130.705 347.834,129.400 347.160 C 128.869 346.885,128.936 347.021,129.600 347.564 M268.200 347.600 C 267.540 348.037,267.180 348.392,267.400 348.388 C 267.801 348.382,269.976 346.823,269.600 346.812 C 269.490 346.808,268.860 347.163,268.200 347.600 M168.100 350.700 C 185.205 350.758,213.195 350.758,230.300 350.700 C 247.405 350.642,233.410 350.595,199.200 350.595 C 164.990 350.595,150.995 350.642,168.100 350.700 " stroke="none" fill="#3074ac" fill-rule="evenodd"></path><path id="path4" d="M137.200 46.816 C 136.573 47.026,137.170 47.066,138.800 46.923 C 140.230 46.797,141.475 46.628,141.567 46.547 C 141.895 46.258,138.180 46.486,137.200 46.816 M256.833 46.547 C 256.925 46.628,258.170 46.797,259.600 46.923 C 261.230 47.066,261.827 47.026,261.200 46.816 C 260.220 46.486,256.505 46.258,256.833 46.547 M133.253 47.853 C 131.189 48.754,131.987 48.882,134.224 48.009 C 135.311 47.585,135.840 47.244,135.400 47.251 C 134.960 47.259,133.994 47.530,133.253 47.853 M264.176 48.009 C 265.263 48.433,266.228 48.706,266.320 48.614 C 266.559 48.375,263.629 47.196,262.851 47.219 C 262.493 47.229,263.089 47.585,264.176 48.009 M126.576 51.907 C 123.979 54.088,119.648 59.381,120.094 59.828 C 120.208 59.941,120.684 59.385,121.152 58.591 C 122.559 56.207,124.870 53.649,127.200 51.897 C 130.143 49.684,130.235 49.600,129.741 49.600 C 129.511 49.600,128.087 50.638,126.576 51.907 M268.620 49.921 C 268.829 50.098,269.990 50.987,271.200 51.897 C 273.530 53.649,275.841 56.207,277.248 58.591 C 277.716 59.385,278.192 59.941,278.306 59.828 C 279.064 59.069,270.132 49.600,268.659 49.600 C 268.399 49.600,268.385 49.722,268.620 49.921 M119.238 61.300 C 119.049 61.795,118.604 62.897,118.248 63.749 C 117.891 64.601,117.609 65.591,117.621 65.949 C 117.632 66.307,118.057 65.520,118.564 64.200 C 119.072 62.880,119.622 61.485,119.786 61.100 C 119.951 60.715,119.972 60.400,119.833 60.400 C 119.694 60.400,119.426 60.805,119.238 61.300 M278.598 61.000 C 278.771 61.440,279.328 62.880,279.836 64.200 C 280.343 65.520,280.768 66.309,280.779 65.953 C 280.804 65.176,279.227 61.164,278.674 60.600 C 278.417 60.338,278.391 60.476,278.598 61.000 M117.069 68.356 C 116.921 69.095,116.822 70.353,116.849 71.150 C 116.886 72.249,116.982 72.018,117.248 70.200 C 117.631 67.571,117.499 66.205,117.069 68.356 M281.077 69.600 C 281.203 71.030,281.372 72.275,281.453 72.367 C 281.742 72.695,281.514 68.980,281.184 68.000 C 280.974 67.373,280.934 67.970,281.077 69.600 M116.840 326.033 C 116.862 327.005,117.031 328.250,117.216 328.800 C 117.426 329.427,117.466 328.830,117.323 327.200 C 117.055 324.156,116.783 323.498,116.840 326.033 M281.263 325.400 C 281.223 326.060,281.104 327.320,280.997 328.200 L 280.803 329.800 281.223 328.460 C 281.454 327.723,281.574 326.463,281.489 325.660 C 281.352 324.366,281.326 324.337,281.263 325.400 M117.634 331.000 C 117.622 331.440,117.787 332.070,118.000 332.400 C 118.514 333.195,118.514 332.196,118.000 331.000 L 117.656 330.200 117.634 331.000 M280.229 331.429 C 280.081 332.015,280.051 332.584,280.161 332.694 C 280.271 332.804,280.481 332.415,280.629 331.829 C 280.776 331.242,280.806 330.673,280.696 330.563 C 280.586 330.453,280.376 330.842,280.229 331.429 M118.418 333.251 C 118.380 333.780,119.657 336.476,119.852 336.281 C 119.965 336.168,119.693 335.384,119.247 334.538 C 118.800 333.692,118.427 333.113,118.418 333.251 M279.055 334.655 C 278.676 335.449,278.453 336.186,278.559 336.293 C 278.666 336.399,279.036 335.809,279.382 334.982 C 280.198 333.029,279.949 332.780,279.055 334.655 M120.000 337.049 C 120.000 337.615,123.639 342.342,125.063 343.626 C 127.277 345.622,129.594 347.340,129.797 347.136 C 129.894 347.040,128.915 346.191,127.623 345.250 C 125.168 343.462,122.616 340.690,121.171 338.241 C 120.361 336.869,120.000 336.501,120.000 337.049 M277.239 338.224 C 275.784 340.689,273.238 343.457,270.777 345.250 C 269.485 346.191,268.506 347.040,268.603 347.136 C 268.806 347.340,271.123 345.622,273.337 343.626 C 275.021 342.107,278.615 337.282,278.298 336.965 C 278.189 336.855,277.712 337.422,277.239 338.224 M132.000 348.195 C 132.000 348.499,134.823 349.602,135.549 349.581 C 135.907 349.571,135.300 349.211,134.200 348.782 C 131.984 347.916,132.000 347.921,132.000 348.195 M264.000 348.820 C 263.010 349.225,262.493 349.566,262.851 349.578 C 263.574 349.602,266.400 348.501,266.400 348.195 C 266.400 347.901,265.972 348.013,264.000 348.820 M137.200 349.979 C 138.186 350.316,141.490 350.541,141.167 350.250 C 141.075 350.168,139.920 349.996,138.600 349.869 C 137.045 349.720,136.552 349.758,137.200 349.979 M258.600 350.000 L 257.000 350.286 258.600 350.303 C 259.480 350.313,260.650 350.176,261.200 350.000 L 262.200 349.680 261.200 349.697 C 260.650 349.706,259.480 349.842,258.600 350.000 " stroke="none" fill="#84accc" fill-rule="evenodd"></path></g></svg>