<svg id="svg" version="1.1" xmlns="http://www.w3.org/2000/svg" xmlns:xlink="http://www.w3.org/1999/xlink" width="400" height="117.75768535262206" viewBox="0, 0, 400,117.75768535262206"><g id="svgg"><path id="path0" d="M313.337 14.765 C 310.790 15.455,308.662 17.829,308.161 20.540 C 308.054 21.116,308.011 34.707,308.040 58.924 L 308.083 96.417 308.537 97.478 C 309.421 99.547,310.905 100.999,312.917 101.766 C 313.894 102.138,347.563 102.356,349.484 102.002 C 352.051 101.529,354.283 99.492,355.117 96.861 C 355.525 95.576,355.590 21.538,355.185 20.083 C 354.572 17.883,353.063 16.074,351.043 15.117 L 349.917 14.583 332.083 14.551 C 316.774 14.523,314.121 14.553,313.337 14.765 M353.000 58.584 L 353.000 91.001 331.875 90.959 L 310.750 90.917 310.708 58.542 L 310.666 26.167 331.833 26.167 L 353.000 26.167 353.000 58.584 " stroke="none" fill="#f9fafb" fill-rule="evenodd"></path><path id="path1" d="M291.319 1.069 C 291.281 1.106,290.875 1.157,290.417 1.182 C 289.651 1.223,289.366 1.293,288.417 1.676 C 288.233 1.750,287.784 1.902,287.417 2.015 C 287.051 2.127,286.414 2.405,286.001 2.632 C 285.588 2.859,284.982 3.180,284.654 3.346 C 284.326 3.511,283.960 3.764,283.842 3.907 C 283.723 4.050,283.541 4.167,283.438 4.168 C 283.084 4.171,280.384 6.583,279.264 7.896 C 278.383 8.930,277.333 10.493,277.333 10.772 C 277.333 10.898,277.269 11.000,277.190 11.000 C 277.016 11.000,276.167 12.604,276.167 12.932 C 276.167 13.061,276.092 13.167,276.000 13.167 C 275.908 13.167,275.833 13.317,275.833 13.500 C 275.833 13.683,275.765 13.833,275.681 13.833 C 275.597 13.833,275.396 14.396,275.234 15.083 C 275.072 15.771,274.878 16.333,274.803 16.333 C 274.728 16.333,274.667 16.543,274.667 16.800 C 274.667 17.057,274.596 17.338,274.510 17.425 C 273.709 18.232,273.729 100.167,274.530 100.167 C 274.605 100.167,274.667 100.385,274.667 100.653 C 274.667 100.920,274.723 101.164,274.792 101.194 C 274.861 101.225,275.054 101.775,275.222 102.417 C 275.390 103.058,275.596 103.608,275.680 103.639 C 275.764 103.669,275.833 103.802,275.833 103.933 C 275.833 104.064,275.901 104.301,275.983 104.461 C 276.066 104.620,276.309 105.114,276.525 105.559 C 276.740 106.004,277.010 106.405,277.125 106.452 C 277.240 106.498,277.333 106.649,277.333 106.788 C 277.333 107.065,278.626 108.953,279.361 109.750 C 280.480 110.963,281.338 111.833,281.415 111.833 C 281.461 111.833,281.767 112.086,282.094 112.395 C 282.421 112.703,282.889 113.059,283.134 113.186 C 283.379 113.313,283.730 113.545,283.914 113.702 C 284.486 114.187,287.217 115.502,287.875 115.608 C 288.219 115.664,288.500 115.775,288.500 115.855 C 288.500 115.935,288.635 116.000,288.800 116.000 C 288.965 116.000,289.194 116.094,289.308 116.208 C 289.474 116.374,298.219 116.417,331.917 116.417 C 365.614 116.417,374.359 116.374,374.525 116.208 C 374.640 116.094,374.906 116.000,375.117 116.000 C 375.328 116.000,375.500 115.933,375.500 115.852 C 375.500 115.770,375.776 115.652,376.113 115.589 C 376.699 115.479,378.158 114.876,378.333 114.671 C 378.379 114.618,378.741 114.431,379.137 114.256 C 379.533 114.081,379.946 113.821,380.054 113.678 C 380.162 113.534,380.503 113.276,380.812 113.104 C 381.681 112.620,384.076 110.384,384.963 109.230 C 385.993 107.890,386.477 107.168,386.906 106.333 C 387.164 105.829,387.431 105.379,387.497 105.333 C 387.564 105.287,387.715 104.950,387.833 104.583 C 387.951 104.217,388.149 103.769,388.274 103.588 C 388.398 103.407,388.500 103.095,388.500 102.893 C 388.500 102.692,388.569 102.503,388.653 102.472 C 388.737 102.442,388.903 101.929,389.022 101.333 C 389.141 100.737,389.288 100.212,389.349 100.167 C 390.104 99.594,390.088 17.333,389.333 17.333 C 389.265 17.333,389.162 16.977,389.104 16.542 C 389.045 16.106,388.886 15.535,388.749 15.273 C 388.612 15.010,388.497 14.710,388.494 14.606 C 388.491 14.502,388.344 14.117,388.167 13.750 C 387.990 13.383,387.842 13.020,387.839 12.942 C 387.821 12.497,385.655 9.148,384.499 7.778 C 383.514 6.610,381.547 4.825,380.704 4.333 C 380.469 4.196,380.145 3.959,379.986 3.807 C 379.827 3.654,379.408 3.397,379.057 3.235 C 378.705 3.073,378.229 2.818,378.000 2.669 C 377.771 2.519,377.133 2.251,376.583 2.074 C 376.033 1.897,375.546 1.706,375.500 1.651 C 375.377 1.502,374.569 1.328,373.250 1.165 C 372.120 1.025,291.459 0.931,291.319 1.069 M351.368 14.975 C 353.247 15.929,354.504 17.406,355.232 19.517 L 355.667 20.775 355.667 58.237 C 355.667 92.348,355.642 95.783,355.395 96.641 C 354.728 98.960,353.393 100.608,351.371 101.611 L 350.083 102.250 332.010 102.295 C 315.572 102.335,313.861 102.314,313.093 102.063 C 311.081 101.406,309.569 100.060,308.550 98.019 L 307.917 96.750 307.917 58.333 L 307.917 19.917 308.532 18.667 C 309.548 16.605,310.653 15.549,312.663 14.719 L 313.583 14.338 331.925 14.377 L 350.268 14.417 351.368 14.975 M246.362 18.219 L 246.000 18.605 246.000 50.707 L 246.000 82.809 246.439 83.155 C 247.172 83.731,252.668 83.680,253.258 83.091 L 253.667 82.682 253.667 50.620 L 253.667 18.558 253.281 18.196 C 252.665 17.618,246.909 17.637,246.362 18.219 M310.833 58.583 L 310.833 90.833 331.833 90.833 L 352.833 90.833 352.833 58.583 L 352.833 26.333 331.833 26.333 L 310.833 26.333 310.833 58.583 M81.667 37.774 C 79.779 38.124,78.184 39.226,77.924 40.361 C 76.734 45.546,79.749 48.675,84.448 47.132 C 90.004 45.308,87.446 36.701,81.667 37.774 M212.806 38.096 C 211.191 38.593,210.008 40.497,210.002 42.607 C 210.000 43.553,210.560 45.581,210.880 45.786 C 210.992 45.858,211.220 46.079,211.387 46.277 L 211.691 46.637 210.971 46.471 C 207.743 45.728,205.168 47.707,205.029 51.038 C 204.867 54.941,208.304 57.173,212.167 55.673 C 214.812 54.646,215.871 50.199,213.962 48.136 C 213.093 47.197,213.093 47.209,213.997 47.395 C 214.547 47.507,215.158 47.510,215.809 47.402 L 216.790 47.240 216.334 47.666 C 213.865 49.972,214.819 54.701,217.962 55.739 C 221.798 57.006,224.755 55.048,224.743 51.250 C 224.732 47.766,222.543 45.877,219.163 46.436 L 218.165 46.601 218.647 46.092 C 220.936 43.677,219.899 38.866,216.917 38.062 C 215.844 37.773,213.800 37.790,212.806 38.096 M29.783 43.742 C 26.130 45.035,25.635 50.878,29.034 52.600 C 33.574 54.901,37.945 51.183,36.328 46.395 C 35.543 44.071,32.425 42.807,29.783 43.742 M40.014 43.617 C 36.192 44.374,35.670 50.917,39.290 52.699 C 43.013 54.532,46.805 52.214,46.640 48.207 C 46.492 44.636,43.908 42.846,40.014 43.617 M115.750 47.873 C 115.108 47.958,114.021 48.216,113.333 48.445 C 112.646 48.674,111.896 48.902,111.667 48.952 C 110.685 49.167,110.667 49.241,110.667 53.005 C 110.667 57.568,110.497 57.449,115.167 56.146 C 119.274 55.000,124.837 56.327,129.664 59.606 C 129.983 59.823,130.310 60.000,130.390 60.000 C 130.470 60.000,130.868 60.225,131.276 60.500 C 131.683 60.775,132.093 61.000,132.186 61.000 C 132.279 61.000,132.594 61.177,132.886 61.393 C 133.178 61.609,133.816 61.999,134.304 62.260 C 135.298 62.790,135.233 62.882,133.730 63.080 C 132.893 63.190,129.330 64.143,128.000 64.613 C 124.485 65.854,123.072 66.519,119.648 68.548 C 118.589 69.175,118.420 69.292,116.668 70.605 C 113.985 72.617,111.190 75.628,109.827 77.975 C 109.686 78.218,109.378 78.717,109.143 79.083 C 108.908 79.450,108.656 79.937,108.584 80.165 C 108.511 80.394,108.246 81.031,107.994 81.582 C 106.212 85.475,106.227 92.446,108.025 96.481 C 108.286 97.067,108.500 97.617,108.500 97.703 C 108.500 97.790,108.763 98.256,109.083 98.739 C 109.404 99.222,109.667 99.672,109.667 99.739 C 109.667 100.472,113.735 104.399,115.642 105.506 C 115.885 105.647,116.408 105.971,116.804 106.225 C 117.201 106.479,117.651 106.729,117.804 106.779 C 117.958 106.830,118.533 107.085,119.083 107.346 C 123.953 109.653,131.771 110.459,139.000 109.399 C 139.962 109.258,141.237 109.071,141.833 108.983 C 144.418 108.603,150.199 106.917,152.000 106.019 L 152.917 105.562 152.963 102.953 L 153.008 100.344 153.379 100.495 C 154.680 101.024,156.839 101.250,160.583 101.250 L 164.417 101.250 166.250 100.615 C 167.258 100.266,168.363 99.797,168.705 99.574 C 169.047 99.350,169.371 99.167,169.425 99.167 C 170.875 99.167,176.494 92.168,176.501 90.353 C 176.502 90.205,176.602 89.893,176.723 89.660 C 176.971 89.184,177.376 87.627,177.674 86.000 C 178.012 84.152,178.067 78.229,177.777 74.895 C 177.204 68.303,177.110 68.923,178.706 68.750 C 179.189 68.698,180.971 68.400,182.667 68.088 C 187.445 67.209,188.723 67.001,188.809 67.086 C 188.878 67.156,189.207 69.325,189.653 72.667 C 189.836 74.038,190.756 76.838,191.366 77.882 C 191.623 78.322,191.833 78.752,191.833 78.839 C 191.833 79.086,192.956 80.495,193.636 81.101 C 194.731 82.077,195.695 82.833,195.845 82.833 C 195.925 82.833,196.387 83.019,196.870 83.247 C 198.813 84.160,203.989 84.659,206.333 84.159 C 206.746 84.071,207.458 83.930,207.917 83.846 C 209.556 83.545,211.198 82.622,212.885 81.052 L 213.521 80.461 213.885 80.793 C 214.344 81.210,216.444 82.667,216.588 82.667 C 216.646 82.667,217.197 82.887,217.811 83.157 C 221.337 84.704,227.748 84.701,230.807 83.149 C 231.326 82.886,231.807 82.670,231.877 82.669 C 232.315 82.661,235.667 79.509,235.667 79.104 C 235.667 79.055,235.854 78.739,236.083 78.401 C 236.312 78.064,236.582 77.479,236.683 77.102 C 236.783 76.725,236.927 76.342,237.001 76.250 C 237.826 75.236,237.858 69.462,237.071 63.583 C 236.936 62.575,236.755 61.000,236.669 60.083 C 236.461 57.858,235.597 53.664,235.310 53.482 C 235.185 53.403,233.640 53.337,231.875 53.336 C 227.528 53.332,227.645 53.208,228.491 56.917 C 229.946 63.296,230.741 71.791,230.011 73.167 C 229.229 74.642,228.899 74.992,227.719 75.598 C 225.102 76.941,221.561 76.462,218.372 74.333 C 217.042 73.445,217.096 73.627,217.570 71.636 C 218.095 69.430,219.182 63.553,219.173 62.968 C 219.161 62.111,218.737 62.000,215.505 62.002 C 211.709 62.005,211.500 62.084,211.500 63.514 C 211.500 63.789,211.283 65.079,211.017 66.381 C 210.752 67.684,210.482 69.162,210.417 69.667 C 209.833 74.236,207.268 76.483,202.840 76.305 C 198.246 76.121,196.675 73.589,196.167 65.553 C 195.674 57.739,195.689 57.767,192.383 58.414 C 191.210 58.644,190.025 58.834,189.750 58.836 C 189.475 58.838,187.938 59.100,186.333 59.419 C 184.729 59.738,183.229 59.999,183.000 59.998 C 182.596 59.998,180.324 60.386,174.083 61.519 C 172.433 61.819,170.716 62.106,170.267 62.157 C 169.634 62.229,169.375 62.352,169.113 62.703 L 168.776 63.156 169.301 66.620 C 171.304 79.848,171.304 85.729,169.301 89.018 C 169.044 89.441,168.833 89.862,168.833 89.954 C 168.833 90.046,168.476 90.455,168.039 90.864 C 165.288 93.438,161.696 93.865,154.484 92.478 C 153.702 92.328,153.466 92.343,153.025 92.570 C 152.418 92.884,152.442 92.744,152.493 95.667 L 152.533 97.917 151.725 97.933 C 151.168 97.945,150.513 98.139,149.621 98.558 C 148.909 98.893,148.247 99.167,148.150 99.167 C 148.053 99.167,147.360 99.383,146.611 99.648 C 145.861 99.912,144.986 100.168,144.666 100.216 C 144.345 100.264,143.221 100.500,142.167 100.741 C 131.358 103.209,119.714 100.852,116.083 95.461 C 115.992 95.325,115.782 95.024,115.618 94.792 C 111.913 89.564,114.466 81.133,121.358 75.833 C 122.979 74.587,128.073 71.833,128.758 71.833 C 128.886 71.833,129.393 71.655,129.885 71.438 C 133.215 69.965,138.921 69.177,147.167 69.050 C 152.149 68.973,153.129 68.918,153.375 68.703 C 153.635 68.476,153.667 68.078,153.667 65.047 C 153.667 60.958,153.681 61.000,152.286 61.000 C 149.312 60.999,145.567 59.648,140.449 56.730 C 139.825 56.374,138.985 55.896,138.583 55.667 C 136.825 54.665,135.894 54.097,135.583 53.834 C 135.400 53.679,134.875 53.345,134.417 53.090 C 133.958 52.836,133.246 52.440,132.833 52.210 C 125.426 48.076,121.566 47.096,115.750 47.873 M79.870 53.593 C 79.427 53.904,79.392 54.538,79.735 56.049 C 83.507 72.662,82.660 75.177,73.293 75.172 C 67.800 75.169,65.540 74.145,64.444 71.161 C 64.025 70.019,64.235 69.615,66.399 67.389 C 66.592 67.191,66.975 66.755,67.250 66.420 C 67.525 66.086,67.956 65.573,68.208 65.281 C 69.120 64.223,68.884 63.773,66.313 61.672 C 64.228 59.969,63.795 59.831,63.029 60.633 C 59.198 64.638,58.177 65.624,56.252 67.176 C 55.519 67.767,54.820 68.344,54.698 68.458 C 54.576 68.573,54.421 68.667,54.353 68.667 C 54.285 68.667,54.084 68.801,53.906 68.966 C 53.536 69.310,51.208 70.833,51.054 70.833 C 50.997 70.833,50.568 71.086,50.101 71.395 C 49.633 71.703,49.078 72.009,48.869 72.075 C 48.659 72.140,48.172 72.374,47.785 72.595 C 47.399 72.815,46.996 72.997,46.890 72.998 C 46.783 72.999,46.136 73.262,45.451 73.583 C 44.766 73.904,44.103 74.167,43.978 74.168 C 43.852 74.168,43.188 74.360,42.500 74.594 C 41.296 75.004,40.769 75.119,36.750 75.851 C 31.421 76.820,23.810 76.249,20.104 74.602 C 19.566 74.363,19.022 74.167,18.896 74.167 C 18.770 74.167,18.667 74.105,18.667 74.031 C 18.667 73.956,18.348 73.716,17.958 73.498 C 13.533 71.021,12.482 66.492,14.356 57.972 C 14.705 56.384,14.261 56.167,10.674 56.167 C 7.333 56.167,6.997 56.459,6.602 59.713 C 6.555 60.100,6.431 61.054,6.325 61.833 C 6.083 63.622,6.073 67.769,6.307 69.083 C 6.405 69.633,6.528 70.390,6.580 70.766 C 6.971 73.579,10.493 79.500,11.775 79.500 C 11.879 79.500,12.004 79.602,12.052 79.728 C 12.356 80.520,16.338 82.353,19.746 83.269 C 21.314 83.691,21.899 83.781,25.583 84.167 C 27.573 84.376,33.553 84.374,35.333 84.164 C 36.112 84.072,37.391 83.929,38.174 83.845 C 40.343 83.615,43.174 82.912,46.250 81.840 C 48.929 80.906,52.451 79.194,54.750 77.708 C 56.395 76.644,57.444 75.922,57.776 75.626 C 58.131 75.308,58.136 75.309,58.244 75.647 C 58.691 77.056,61.575 80.667,62.253 80.667 C 62.389 80.667,62.500 80.729,62.500 80.806 C 62.500 81.140,65.913 82.616,67.186 82.833 C 67.726 82.925,68.635 83.088,69.208 83.196 C 72.153 83.749,78.550 83.176,80.795 82.158 C 81.392 81.888,81.952 81.667,82.040 81.667 C 82.825 81.667,86.032 79.053,86.795 77.792 C 86.947 77.540,87.123 77.333,87.184 77.333 C 87.589 77.333,88.704 74.054,88.867 72.386 C 89.300 67.936,87.747 54.293,86.721 53.542 C 86.264 53.207,80.358 53.251,79.870 53.593 M250.833 84.443 C 247.461 85.131,245.302 86.646,243.998 89.240 C 243.288 90.653,243.074 93.498,243.569 94.950 C 243.714 95.377,243.833 95.750,243.833 95.780 C 243.833 95.809,243.496 95.833,243.083 95.833 C 241.855 95.833,241.503 96.620,241.088 100.285 C 240.847 102.424,240.464 102.333,249.747 102.333 C 259.574 102.333,258.660 102.678,258.664 98.970 C 258.667 95.565,258.986 95.835,254.946 95.827 C 252.747 95.823,251.644 95.758,251.410 95.619 C 250.675 95.182,249.956 94.568,249.808 94.250 C 249.722 94.067,249.544 93.729,249.412 93.500 C 248.280 91.538,250.757 90.312,254.250 91.104 C 257.715 91.889,257.833 91.799,257.833 88.387 C 257.833 85.267,257.847 85.294,255.939 84.834 C 254.471 84.481,251.694 84.268,250.833 84.443 " stroke="none" fill="#045494" fill-rule="evenodd"></path><path id="path2" d="M355.582 58.333 C 355.582 78.454,355.601 86.685,355.625 76.625 C 355.649 66.565,355.649 50.102,355.625 40.042 C 355.601 29.981,355.582 38.212,355.582 58.333 M321.292 26.292 C 327.090 26.316,336.577 26.316,342.375 26.292 C 348.173 26.267,343.429 26.247,331.833 26.247 C 320.237 26.247,315.494 26.267,321.292 26.292 M309.667 99.719 C 309.667 99.748,309.910 99.991,310.208 100.260 L 310.750 100.750 310.260 100.208 C 309.804 99.703,309.667 99.590,309.667 99.719 M323.221 102.292 C 327.972 102.316,335.697 102.316,340.388 102.292 C 345.079 102.267,341.192 102.247,331.750 102.247 C 322.308 102.247,318.470 102.267,323.221 102.292 " stroke="none" fill="#5d90b9" fill-rule="evenodd"></path><path id="path3" d="M313.250 14.500 C 313.040 14.590,313.009 14.643,313.167 14.643 C 313.304 14.643,313.567 14.579,313.750 14.500 C 313.960 14.410,313.991 14.357,313.833 14.357 C 313.696 14.357,313.433 14.421,313.250 14.500 M309.991 16.458 L 309.417 17.083 310.042 16.509 C 310.623 15.974,310.743 15.833,310.616 15.833 C 310.588 15.833,310.307 16.115,309.991 16.458 M355.457 20.936 C 355.505 21.384,355.572 21.781,355.606 21.819 C 355.738 21.970,355.652 20.569,355.515 20.353 C 355.426 20.211,355.403 20.438,355.457 20.936 M310.748 58.500 C 310.748 76.237,310.768 83.494,310.792 74.625 C 310.815 65.756,310.815 51.244,310.792 42.375 C 310.768 33.506,310.748 40.762,310.748 58.500 M352.915 58.583 C 352.915 76.367,352.934 83.617,352.958 74.695 C 352.982 65.773,352.982 51.223,352.958 42.362 C 352.934 33.500,352.915 40.800,352.915 58.583 M355.542 95.417 C 355.544 95.783,355.578 95.914,355.618 95.706 C 355.658 95.499,355.656 95.199,355.615 95.040 C 355.573 94.880,355.540 95.050,355.542 95.417 M313.875 102.282 C 314.035 102.323,314.298 102.323,314.458 102.282 C 314.619 102.240,314.487 102.205,314.167 102.205 C 313.846 102.205,313.715 102.240,313.875 102.282 " stroke="none" fill="#3374ac" fill-rule="evenodd"></path><path id="path4" d="M323.138 14.458 C 327.934 14.483,335.734 14.483,340.471 14.458 C 345.208 14.434,341.283 14.414,331.750 14.414 C 322.217 14.414,318.341 14.434,323.138 14.458 M350.681 14.888 C 350.969 15.118,352.320 15.781,352.243 15.655 C 352.140 15.488,350.933 14.833,350.729 14.833 C 350.664 14.833,350.642 14.858,350.681 14.888 M310.906 15.818 C 310.288 16.273,309.394 17.269,309.097 17.833 C 309.025 17.971,309.178 17.821,309.437 17.500 C 310.062 16.727,310.641 16.155,311.250 15.710 C 311.525 15.508,311.709 15.342,311.658 15.339 C 311.607 15.336,311.269 15.552,310.906 15.818 M353.160 16.542 C 353.568 16.977,353.925 17.333,353.951 17.333 C 354.077 17.333,353.944 17.184,353.208 16.493 L 352.417 15.750 353.160 16.542 M307.915 58.250 C 307.915 78.692,307.935 87.079,307.958 76.888 C 307.982 66.698,307.982 49.973,307.958 39.722 C 307.935 29.471,307.915 37.808,307.915 58.250 M321.388 90.958 C 327.239 90.983,336.764 90.983,342.555 90.958 C 348.345 90.934,343.558 90.914,331.917 90.914 C 320.275 90.914,315.537 90.934,321.388 90.958 M308.262 97.000 C 308.324 97.229,308.443 97.529,308.528 97.667 C 308.635 97.840,308.649 97.790,308.571 97.500 C 308.510 97.271,308.390 96.971,308.305 96.833 C 308.198 96.660,308.185 96.710,308.262 97.000 M354.205 98.762 C 353.999 99.076,353.863 99.333,353.904 99.333 C 354.020 99.333,354.710 98.321,354.641 98.252 C 354.607 98.218,354.411 98.448,354.205 98.762 M353.158 100.125 L 352.583 100.750 353.208 100.176 C 353.790 99.641,353.910 99.500,353.783 99.500 C 353.755 99.500,353.474 99.781,353.158 100.125 " stroke="none" fill="#76a4c4" fill-rule="evenodd"></path></g></svg>