<svg xmlns="http://www.w3.org/2000/svg" width="1080" height="1080" viewBox="0 0 1080 1080" version="1.1"><path d="M 523.500 199.546 C 519.100 200.270, 514.150 201.291, 512.500 201.815 C 506.436 203.739, 493.654 210.081, 488.648 213.648 C 481.973 218.406, 217.660 482.175, 209.842 491.880 C 203.135 500.206, 199.532 506.874, 195.455 518.500 C 193.074 525.291, 192.583 528.512, 192.208 539.813 C 191.939 547.872, 192.230 555.492, 192.944 559.121 C 194.737 568.236, 201.025 582.870, 206.464 590.587 C 212.538 599.205, 411.012 798.266, 415.834 800.576 C 419.651 802.405, 423.664 801.370, 425.758 798.016 C 426.419 796.957, 432.174 780.207, 438.547 760.795 C 444.920 741.383, 450.715 724.150, 451.425 722.500 C 452.381 720.282, 458.716 701.139, 461.519 692 C 461.604 691.725, 461.952 690.825, 462.294 690 C 462.635 689.175, 465.634 680.230, 468.957 670.121 C 475.119 651.381, 476.259 644.343, 473.889 639.684 C 473.277 638.483, 450.143 614.775, 422.478 587 C 386.537 550.915, 371.726 535.395, 370.590 532.628 C 368.570 527.708, 368.544 518.037, 370.539 513.218 C 371.628 510.584, 408.662 472.900, 497.539 383.987 C 620.713 260.761, 623 258.403, 623 254.622 C 623 251.006, 622.098 249.852, 608.250 235.753 C 582.858 209.902, 569.936 202.323, 545.678 199.054 C 536.274 197.787, 533.862 197.840, 523.500 199.546 M 650.315 286.007 C 649.114 286.491, 647.697 287.700, 647.167 288.694 C 645.857 291.147, 596.999 437.883, 597.006 439.342 C 597.038 446.022, 598.475 447.647, 649.726 498.934 C 683.925 533.156, 700.855 550.793, 702.106 553.500 C 703.167 555.792, 703.965 559.798, 703.978 562.884 C 704.027 574.976, 713.353 564.814, 575.842 702.517 C 452.300 826.230, 450 828.605, 450 832.387 C 450 836.036, 450.859 837.094, 466.250 852.405 C 484.497 870.557, 492.132 876.423, 504.191 881.550 C 515.087 886.182, 523.976 888, 535.733 888 C 553.444 888, 568.107 883.709, 582.181 874.408 C 587.832 870.674, 620.513 838.561, 725.546 733.536 C 807.005 652.083, 863.445 594.889, 866.211 590.993 C 871.001 584.243, 876.976 571.683, 878.971 564.169 C 881.934 553.008, 881.540 531.884, 878.137 519.443 C 876.582 513.760, 870.461 501.442, 866.239 495.500 C 861.860 489.337, 661.552 288.426, 657.800 286.434 C 654.757 284.818, 653.451 284.743, 650.315 286.007" stroke="none" fill="#fafafb" fill-rule="evenodd"/><path d="M 158.181 1.114 C 155.256 1.603, 152.023 2.453, 150.997 3.002 C 149.971 3.551, 147.778 4, 146.125 4 C 144.471 4, 142.840 4.450, 142.500 5 C 142.160 5.550, 140.585 6, 139 6 C 137.415 6, 135.840 6.450, 135.500 7 C 135.160 7.550, 133.810 8, 132.500 8 C 131.190 8, 129.840 8.450, 129.500 9 C 129.160 9.550, 128.183 10, 127.329 10 C 125.866 10, 106.077 18.842, 105 19.976 C 104.725 20.266, 103.150 21.169, 101.500 21.983 C 98.133 23.643, 90.766 28.175, 90 29.057 C 89.725 29.373, 87.260 31.157, 84.523 33.021 C 71.830 41.661, 52.626 60.123, 45.015 71 C 43.668 72.925, 41.987 75.096, 41.279 75.825 C 39.035 78.137, 34 85.818, 34 86.930 C 34 87.519, 33.638 88, 33.196 88 C 32.478 88, 28.451 94.732, 25.573 100.742 C 24.983 101.975, 24.163 102.988, 23.750 102.992 C 23.337 102.996, 23 103.900, 23 105 C 23 106.100, 22.550 107, 22 107 C 21.450 107, 21 107.564, 21 108.253 C 21 108.943, 19.479 112.655, 17.619 116.503 C 13.663 124.690, 8 140.801, 8 143.869 C 8 145.041, 7.550 146, 7 146 C 6.450 146, 6 147.773, 6 149.941 C 6 152.109, 5.550 154.160, 5 154.500 C 4.450 154.840, 3.993 156.554, 3.985 158.309 C 3.977 160.064, 3.190 163.525, 2.235 166 C 0.602 170.237, 0.483 191.791, 0.215 534.500 C -0.068 895.039, 0.069 913.412, 3.064 916.450 C 3.579 916.972, 4 919.308, 4 921.641 C 4 923.974, 4.450 926.160, 5 926.500 C 5.550 926.840, 6 928.666, 6 930.559 C 6 932.452, 6.450 934, 7 934 C 7.550 934, 8 934.981, 8 936.179 C 8 938.177, 9.138 942.441, 11.022 947.500 C 13.623 954.487, 17.646 963.983, 19.190 966.780 C 20.185 968.585, 21 970.722, 21 971.530 C 21 972.339, 21.450 973, 22 973 C 22.550 973, 23 973.900, 23 975 C 23 976.100, 23.344 977, 23.764 977 C 24.184 977, 25.318 978.688, 26.284 980.750 C 28.818 986.164, 32.070 991.447, 33.106 991.833 C 33.597 992.017, 34 992.635, 34 993.206 C 34 994.116, 42.440 1006.670, 43.945 1008 C 44.257 1008.275, 45.697 1010.093, 47.147 1012.040 C 52.320 1018.990, 72.235 1038.352, 79.506 1043.500 C 81.059 1044.600, 82.818 1045.962, 83.415 1046.527 C 85.018 1048.044, 98.029 1056.314, 101.500 1058.021 C 103.150 1058.833, 104.725 1059.782, 105 1060.130 C 105.275 1060.478, 109.100 1062.427, 113.500 1064.460 C 117.900 1066.493, 122.281 1068.572, 123.236 1069.078 C 124.191 1069.585, 125.852 1070, 126.927 1070 C 128.002 1070, 129.160 1070.450, 129.500 1071 C 129.840 1071.550, 131.190 1072, 132.500 1072 C 133.810 1072, 135.160 1072.450, 135.500 1073 C 135.840 1073.550, 137.366 1074, 138.892 1074 C 140.418 1074, 141.976 1074.309, 142.354 1074.687 C 142.732 1075.065, 146.069 1076.275, 149.770 1077.376 C 156.442 1079.361, 159.737 1079.381, 534.804 1079.700 C 769.025 1079.898, 915.659 1079.660, 919.804 1079.075 C 927.679 1077.962, 936.522 1075.811, 937.584 1074.749 C 937.996 1074.337, 939.582 1074, 941.108 1074 C 942.634 1074, 944.160 1073.550, 944.500 1073 C 944.840 1072.450, 946.190 1072, 947.500 1072 C 948.810 1072, 950.160 1071.550, 950.500 1071 C 950.840 1070.450, 951.998 1070, 953.073 1070 C 954.148 1070, 955.809 1069.580, 956.764 1069.068 C 957.719 1068.555, 962.212 1066.437, 966.750 1064.362 C 971.287 1062.286, 975 1060.231, 975 1059.794 C 975 1059.357, 975.900 1059, 977 1059 C 978.100 1059, 979 1058.550, 979 1058 C 979 1057.450, 979.465 1057, 980.032 1057 C 981.291 1057, 993.417 1049.117, 1001.200 1043.239 C 1010.090 1036.523, 1029.899 1016.387, 1036.848 1007 C 1040.310 1002.325, 1043.785 997.707, 1044.571 996.739 C 1045.357 995.770, 1046 994.762, 1046 994.499 C 1046 994.236, 1048.025 990.861, 1050.500 987 C 1052.975 983.139, 1055 979.309, 1055 978.490 C 1055 977.670, 1055.340 977, 1055.756 977 C 1056.172 977, 1057.126 975.537, 1057.878 973.750 C 1059.275 970.426, 1065.534 956.889, 1067.119 953.764 C 1067.604 952.809, 1068 951.148, 1068 950.073 C 1068 948.998, 1068.450 947.840, 1069 947.500 C 1069.550 947.160, 1070 945.810, 1070 944.500 C 1070 943.190, 1070.450 941.840, 1071 941.500 C 1071.550 941.160, 1072 939.585, 1072 938 C 1072 936.415, 1072.450 934.840, 1073 934.500 C 1073.550 934.160, 1074 932.360, 1074 930.500 C 1074 928.640, 1074.450 926.840, 1075 926.500 C 1075.550 926.160, 1076 924.615, 1076 923.067 C 1076 921.518, 1076.675 918.338, 1077.500 916 C 1078.325 913.662, 1079 909.807, 1079 907.433 C 1079 905.060, 1079.450 902.840, 1080 902.500 C 1080.664 902.090, 1081 779.803, 1081 538.882 C 1081 297.137, 1080.666 176.088, 1080 176.500 C 1079.391 176.877, 1079 175.386, 1079 172.685 C 1079 170.246, 1078.325 166.338, 1077.500 164 C 1076.675 161.662, 1076 158.482, 1076 156.933 C 1076 155.385, 1075.550 153.840, 1075 153.500 C 1074.450 153.160, 1074 151.334, 1074 149.441 C 1074 147.548, 1073.550 146, 1073 146 C 1072.450 146, 1072 145.019, 1072 143.821 C 1072 141.793, 1070.769 137.218, 1068.953 132.500 C 1068.530 131.400, 1066.984 127.350, 1065.518 123.500 C 1064.052 119.650, 1061.985 115.012, 1060.926 113.193 C 1059.867 111.374, 1059 109.236, 1059 108.443 C 1059 107.649, 1058.550 107, 1058 107 C 1057.450 107, 1057 106.100, 1057 105 C 1057 103.900, 1056.550 103, 1056 103 C 1055.450 103, 1055 102.100, 1055 101 C 1055 99.900, 1054.550 99, 1054 99 C 1053.450 99, 1053 98.499, 1053 97.886 C 1053 96.483, 1040.927 77.996, 1036.110 72.023 C 1029.549 63.886, 1027.575 61.695, 1019.484 53.560 C 1011.077 45.107, 1005.224 39.849, 1000.494 36.500 C 998.941 35.400, 997.101 33.938, 996.406 33.250 C 995.711 32.563, 994.746 32, 994.260 32 C 993.774 32, 992.505 31.212, 991.439 30.250 C 989.129 28.165, 982.681 24.045, 978.500 21.983 C 976.850 21.169, 975.275 20.258, 975 19.959 C 974.154 19.039, 960.775 12.835, 955.747 11.032 C 953.133 10.094, 950.695 9.029, 950.330 8.664 C 949.965 8.299, 948.643 8, 947.392 8 C 946.141 8, 944.840 7.550, 944.500 7 C 944.160 6.450, 942.585 6, 941 6 C 939.415 6, 937.840 5.550, 937.500 5 C 937.160 4.450, 935.671 3.993, 934.191 3.985 C 932.711 3.977, 929.475 3.190, 927 2.235 C 922.759 0.600, 900.628 0.492, 543 0.362 C 325.409 0.283, 161.231 0.604, 158.181 1.114 M 0.495 540 C 0.495 739.925, 0.610 821.713, 0.750 721.750 C 0.890 621.788, 0.890 458.213, 0.750 358.250 C 0.610 258.288, 0.495 340.075, 0.495 540 M 523.500 199.546 C 519.100 200.270, 514.150 201.291, 512.500 201.815 C 506.436 203.739, 493.654 210.081, 488.648 213.648 C 481.973 218.406, 217.660 482.175, 209.842 491.880 C 203.135 500.206, 199.532 506.874, 195.455 518.500 C 193.074 525.291, 192.583 528.512, 192.208 539.813 C 191.939 547.872, 192.230 555.492, 192.944 559.121 C 194.737 568.236, 201.025 582.870, 206.464 590.587 C 212.538 599.205, 411.012 798.266, 415.834 800.576 C 419.651 802.405, 423.664 801.370, 425.758 798.016 C 426.419 796.957, 432.174 780.207, 438.547 760.795 C 444.920 741.383, 450.715 724.150, 451.425 722.500 C 452.381 720.282, 458.716 701.139, 461.519 692 C 461.604 691.725, 461.952 690.825, 462.294 690 C 462.635 689.175, 465.634 680.230, 468.957 670.121 C 475.119 651.381, 476.259 644.343, 473.889 639.684 C 473.277 638.483, 450.143 614.775, 422.478 587 C 386.537 550.915, 371.726 535.395, 370.590 532.628 C 368.570 527.708, 368.544 518.037, 370.539 513.218 C 371.628 510.584, 408.662 472.900, 497.539 383.987 C 620.713 260.761, 623 258.403, 623 254.622 C 623 251.006, 622.098 249.852, 608.250 235.753 C 582.858 209.902, 569.936 202.323, 545.678 199.054 C 536.274 197.787, 533.862 197.840, 523.500 199.546 M 650.315 286.007 C 649.114 286.491, 647.697 287.700, 647.167 288.694 C 645.857 291.147, 596.999 437.883, 597.006 439.342 C 597.038 446.022, 598.475 447.647, 649.726 498.934 C 683.925 533.156, 700.855 550.793, 702.106 553.500 C 703.167 555.792, 703.965 559.798, 703.978 562.884 C 704.027 574.976, 713.353 564.814, 575.842 702.517 C 452.300 826.230, 450 828.605, 450 832.387 C 450 836.036, 450.859 837.094, 466.250 852.405 C 484.497 870.557, 492.132 876.423, 504.191 881.550 C 515.087 886.182, 523.976 888, 535.733 888 C 553.444 888, 568.107 883.709, 582.181 874.408 C 587.832 870.674, 620.513 838.561, 725.546 733.536 C 807.005 652.083, 863.445 594.889, 866.211 590.993 C 871.001 584.243, 876.976 571.683, 878.971 564.169 C 881.934 553.008, 881.540 531.884, 878.137 519.443 C 876.582 513.760, 870.461 501.442, 866.239 495.500 C 861.860 489.337, 661.552 288.426, 657.800 286.434 C 654.757 284.818, 653.451 284.743, 650.315 286.007" stroke="none" fill="#045494" fill-rule="evenodd"/></svg>