<svg xmlns="http://www.w3.org/2000/svg" width="1080" height="1080" viewBox="0 0 1080 1080" version="1.1"><path d="M 523.500 199.487 C 519.100 200.244, 514.150 201.291, 512.500 201.815 C 506.436 203.739, 493.654 210.081, 488.648 213.648 C 481.973 218.406, 217.660 482.175, 209.842 491.880 C 203.135 500.206, 199.532 506.874, 195.455 518.500 C 193.074 525.291, 192.583 528.512, 192.208 539.813 C 191.939 547.872, 192.230 555.492, 192.944 559.121 C 194.737 568.236, 201.025 582.870, 206.464 590.587 C 212.538 599.205, 411.012 798.266, 415.834 800.576 C 419.608 802.385, 423.659 801.376, 425.691 798.123 C 426.316 797.122, 429.838 787.123, 433.518 775.902 C 437.198 764.681, 441.057 753.250, 442.093 750.500 C 443.130 747.750, 445.355 741, 447.038 735.500 C 448.722 730, 450.571 724.375, 451.148 723 C 451.725 721.625, 457.328 705.009, 463.599 686.076 C 475.222 650.981, 476.561 644.946, 473.892 639.684 C 473.283 638.483, 450.377 615, 422.992 587.500 C 390.256 554.628, 372.480 536.058, 371.100 533.290 C 368.547 528.172, 368.282 518.671, 370.539 513.218 C 371.628 510.584, 408.662 472.900, 497.539 383.987 C 621.546 259.928, 623 258.428, 623 254.547 C 623 250.790, 622.250 249.876, 605.750 233.510 C 596.263 224.099, 585.667 214.544, 582.204 212.274 C 565.183 201.120, 542.607 196.202, 523.500 199.487 M 650.315 286.007 C 649.114 286.491, 647.697 287.700, 647.167 288.694 C 645.857 291.147, 596.999 437.883, 597.006 439.342 C 597.038 445.978, 598.523 447.657, 649.727 498.907 C 684.045 533.258, 700.863 550.784, 702.114 553.500 C 703.165 555.782, 703.966 559.813, 703.978 562.884 C 704.027 574.976, 713.353 564.814, 575.842 702.517 C 452.300 826.230, 450 828.605, 450 832.387 C 450 836.036, 450.859 837.094, 466.250 852.405 C 475.188 861.297, 485.578 870.744, 489.340 873.400 C 496.879 878.723, 510.214 884.563, 519.500 886.608 C 526.766 888.209, 543.439 888.387, 551.566 886.952 C 561.235 885.244, 575.361 879.308, 583.257 873.635 C 591.974 867.372, 857.684 602.166, 865.227 592.200 C 870.691 584.981, 875.915 574.562, 878.452 565.823 C 881.967 553.713, 881.776 532.761, 878.026 519.032 C 876.455 513.281, 870.740 501.887, 866.223 495.500 C 861.886 489.368, 661.573 288.438, 657.800 286.434 C 654.757 284.818, 653.451 284.743, 650.315 286.007" stroke="none" fill="#fafafb" fill-rule="evenodd"/><path d="M 0 540.001 L 0 1080.002 540.250 1079.751 L 1080.500 1079.500 1080.751 539.750 L 1081.002 -0 540.501 -0 L 0 0 0 540.001 M 0.496 540.500 C 0.496 837.500, 0.610 958.851, 0.750 810.168 C 0.890 661.485, 0.890 418.485, 0.750 270.168 C 0.610 121.851, 0.496 243.500, 0.496 540.500 M 523.500 199.487 C 519.100 200.244, 514.150 201.291, 512.500 201.815 C 506.436 203.739, 493.654 210.081, 488.648 213.648 C 481.973 218.406, 217.660 482.175, 209.842 491.880 C 203.135 500.206, 199.532 506.874, 195.455 518.500 C 193.074 525.291, 192.583 528.512, 192.208 539.813 C 191.939 547.872, 192.230 555.492, 192.944 559.121 C 194.737 568.236, 201.025 582.870, 206.464 590.587 C 212.538 599.205, 411.012 798.266, 415.834 800.576 C 419.608 802.385, 423.659 801.376, 425.691 798.123 C 426.316 797.122, 429.838 787.123, 433.518 775.902 C 437.198 764.681, 441.057 753.250, 442.093 750.500 C 443.130 747.750, 445.355 741, 447.038 735.500 C 448.722 730, 450.571 724.375, 451.148 723 C 451.725 721.625, 457.328 705.009, 463.599 686.076 C 475.222 650.981, 476.561 644.946, 473.892 639.684 C 473.283 638.483, 450.377 615, 422.992 587.500 C 390.256 554.628, 372.480 536.058, 371.100 533.290 C 368.547 528.172, 368.282 518.671, 370.539 513.218 C 371.628 510.584, 408.662 472.900, 497.539 383.987 C 621.546 259.928, 623 258.428, 623 254.547 C 623 250.790, 622.250 249.876, 605.750 233.510 C 596.263 224.099, 585.667 214.544, 582.204 212.274 C 565.183 201.120, 542.607 196.202, 523.500 199.487 M 650.315 286.007 C 649.114 286.491, 647.697 287.700, 647.167 288.694 C 645.857 291.147, 596.999 437.883, 597.006 439.342 C 597.038 445.978, 598.523 447.657, 649.727 498.907 C 684.045 533.258, 700.863 550.784, 702.114 553.500 C 703.165 555.782, 703.966 559.813, 703.978 562.884 C 704.027 574.976, 713.353 564.814, 575.842 702.517 C 452.300 826.230, 450 828.605, 450 832.387 C 450 836.036, 450.859 837.094, 466.250 852.405 C 475.188 861.297, 485.578 870.744, 489.340 873.400 C 496.879 878.723, 510.214 884.563, 519.500 886.608 C 526.766 888.209, 543.439 888.387, 551.566 886.952 C 561.235 885.244, 575.361 879.308, 583.257 873.635 C 591.974 867.372, 857.684 602.166, 865.227 592.200 C 870.691 584.981, 875.915 574.562, 878.452 565.823 C 881.967 553.713, 881.776 532.761, 878.026 519.032 C 876.455 513.281, 870.740 501.887, 866.223 495.500 C 861.886 489.368, 661.573 288.438, 657.800 286.434 C 654.757 284.818, 653.451 284.743, 650.315 286.007" stroke="none" fill="#045494" fill-rule="evenodd"/></svg>